#!OML:ASF F:\VICON\USERDATA\INSTALL\Justin_Nancy\Justin_Nancy.ASF
:FULLY-SPECIFIED
:DEGREES
143
root 1.06874 17.1511 6.39877 -3.08751 -50.4734 5.95423
lowerback 8.8121 2.36919 -2.89488
upperback -0.0494091 2.87787 0.537682
thorax -5.16672 1.49843 1.8059
lowerneck -16.1405 -3.86403 -10.2319
upperneck 21.668 -4.50536 7.09517
head 9.94955 -2.17149 3.59887
rclavicle 1.59028e-014 -9.54166e-015
rhumerus -32.0722 -12.4995 -81.3569
rradius 33.7268
rwrist 7.24872
rhand -16.2388 9.89863
rfingers 7.12502
rthumb 9.96978 -19.8453
lclavicle 1.59028e-014 -9.54166e-015
lhumerus -38.2352 25.7842 72.8113
lradius 20.7971
lwrist -12.0504
lhand -15.076 27.1342
lfingers 7.12502
lthumb 11.0914 56.8212
rfemur -5.92348 4.2267 19.6121
rtibia 66.1623
rfoot 5.2609 4.36578
rtoes -0.184676
lfemur -24.105 0.290496 -22.3704
ltibia 30.7277
lfoot -7.19472 -4.28629
ltoes -14.0077
144
root 0.936206 17.1991 6.59877 -3.67343 -50.3237 6.71405
lowerback 8.81218 2.22143 -3.28956
upperback -0.0806935 2.63236 0.389433
thorax -5.19712 1.38618 1.90568
lowerneck -15.9513 -3.8395 -10.2657
upperneck 21.5727 -4.43432 6.92026
head 9.87035 -2.16374 3.5511
rclavicle 1.4233e-013 -1.11319e-014
rhumerus -32.2407 -13.6145 -80.4548
rradius 32.1269
rwrist 8.82053
rhand -14.6207 12.2537
rfingers 7.12502
rthumb 11.5306 -17.4091
lclavicle 1.4233e-013 -1.11319e-014
lhumerus -37.7895 25.6384 72.8832
lradius 20.3514
lwrist -12.2775
lhand -15.6546 26.9854
lfingers 7.12502
lthumb 10.5333 56.7014
rfemur -7.98097 3.31868 18.675
rtibia 68.283
rfoot 3.31364 1.93213
rtoes 2.49374
lfemur -23.2351 -0.583579 -22.8293
ltibia 30.6244
lfoot -7.06201 -4.2285
ltoes -1.86062
145
root 0.804108 17.2369 6.78875 -3.45061 -50.2949 6.31351
lowerback 8.94492 2.06329 -2.9471
upperback -0.0781344 2.45373 0.409673
thorax -5.24412 1.2898 1.75486
lowerneck -15.9669 -3.80605 -10.3099
upperneck 21.622 -4.37264 6.90241
head 9.88555 -2.14158 3.56136
rclavicle 9.26834e-014 1.35174e-014
rhumerus -32.2306 -14.504 -79.9681
rradius 30.6669
rwrist 9.67074
rhand -14.2222 13.0074
rfingers 7.12502
rthumb 11.9149 -16.6336
lclavicle 9.26834e-014 1.35174e-014
lhumerus -37.1159 25.4194 72.9122
lradius 19.8673
lwrist -12.7926
lhand -15.8259 26.6836
lfingers 7.12502
lthumb 10.3681 56.408
rfemur -9.92907 2.64355 18.8609
rtibia 70.0569
rfoot 1.49325 -0.189357
rtoes 3.93468
lfemur -22.227 -1.15512 -22.5788
ltibia 30.2981
lfoot -7.24879 -4.51674
ltoes 5.92332
146
root 0.670314 17.2702 6.98402 -2.7993 -50.4688 5.05477
lowerback 9.31457 1.93091 -2.06939
upperback -0.094714 2.37574 0.685665
thorax -5.44026 1.23336 1.54883
lowerneck -16.0059 -3.80238 -10.4604
upperneck 21.9506 -4.28999 6.69243
head 10.002 -2.14442 3.52791
rclavicle -5.09883e-014 1.27222e-014
rhumerus -32.2917 -15.6119 -79.3208
rradius 29.2878
rwrist 10.5404
rhand -14.1249 12.987
rfingers 7.12502
rthumb 12.0087 -16.6485
lclavicle -5.09883e-014 1.27222e-014
lhumerus -36.553 25.6518 72.7767
lradius 19.1857
lwrist -13.904
lhand -15.4871 26.25
lfingers 7.12502
lthumb 10.6949 55.9578
rfemur -11.529 2.35707 19.841
rtibia 71.3908
rfoot -0.0614094 -2.33842
rtoes 6.48665
lfemur -20.9719 -1.75403 -21.6549
ltibia 30.0285
lfoot -7.43742 -4.39709
ltoes 14.2473
147
root 0.531349 17.2758 7.17289 -4.1886 -49.5782 7.28532
lowerback 8.90296 1.55019 -3.60327
upperback -0.22871 1.70007 0.369175
thorax -5.35573 0.939022 2.18413
lowerneck -15.7397 -3.70106 -10.4654
upperneck 22.0446 -4.09931 6.35449
head 9.96059 -2.10236 3.43683
rclavicle 7.95139e-015 -7.15625e-015
rhumerus -32.5391 -15.26 -79.2485
rradius 28.6202
rwrist 9.91822
rhand -14.4679 12.1534
rfingers 7.12502
rthumb 11.6779 -17.5011
lclavicle 7.95139e-015 -7.15625e-015
lhumerus -35.9447 25.7769 72.7308
lradius 18.4342
lwrist -15.0636
lhand -15.3935 26.2099
lfingers 7.12502
lthumb 10.7852 55.913
rfemur -13.7506 0.749793 17.8505
rtibia 72.7357
rfoot -1.78449 -3.47391
rtoes 8.11492
lfemur -20.0472 -1.84038 -23.9488
ltibia 29.6793
lfoot -8.58221 -4.04983
ltoes 5.30832
148
root 0.401118 17.2803 7.36296 -4.42269 -49.3269 7.54957
lowerback 8.91589 1.31653 -3.77669
upperback -0.274003 1.3708 0.390509
thorax -5.39357 0.783158 2.34874
lowerneck -15.4464 -3.51622 -10.4816
upperneck 22.1279 -3.82763 6.16196
head 9.90574 -2.00777 3.41076
rclavicle 1.06052e-013 -4.77083e-015
rhumerus -32.8534 -15.0766 -79.0832
rradius 28.0645
rwrist 9.68511
rhand -15.0929 11.1662
rfingers 7.12502
rthumb 11.0751 -18.5215
lclavicle 1.06052e-013 -4.77083e-015
lhumerus -35.2947 25.6832 72.8742
lradius 17.878
lwrist -16.0563
lhand -15.1036 26.6669
lfingers 7.12502
lthumb 11.0648 56.3552
rfemur -15.663 -0.07769 17.5712
rtibia 73.6864
rfoot -3.16097 -4.46841
rtoes 9.15957
lfemur -18.934 -1.98274 -24.5121
ltibia 29.3092
lfoot -9.33631 -3.93283
ltoes 2.4988
149
root 0.267832 17.2904 7.55471 -4.78884 -49.0558 8.0189
lowerback 8.86467 1.23312 -4.00807
upperback -0.309914 1.23361 0.327057
thorax -5.39674 0.721678 2.43197
lowerneck -15.2757 -3.5757 -10.6974
upperneck 22.3637 -3.89063 6.16899
head 9.96938 -2.06295 3.44565
rclavicle 7.45939e-014 1.59028e-015
rhumerus -33.2939 -15.9865 -78.428
rradius 27.4159
rwrist 10.3531
rhand -15.1447 10.4426
rfingers 7.12502
rthumb 11.0252 -19.2478
lclavicle 7.45939e-014 1.59028e-015
lhumerus -34.5314 25.4059 73.1048
lradius 17.4458
lwrist -17.4876
lhand -14.9747 26.5926
lfingers 7.12502
lthumb 11.1891 56.2742
rfemur -17.3932 -0.772184 17.1097
rtibia 74.3794
rfoot -4.77333 -4.70987
rtoes 11.9355
lfemur -17.7624 -2.28047 -25.1522
ltibia 28.7206
lfoot -9.85927 -4.01091
ltoes 1.8814
150
root 0.12842 17.3052 7.74467 -5.49802 -48.7554 8.97499
lowerback 8.78514 1.18564 -4.6171
upperback -0.375569 1.09987 0.164105
thorax -5.421 0.671829 2.62316
lowerneck -15.0222 -3.54704 -10.5528
upperneck 22.4882 -3.86786 5.93556
head 9.95612 -2.07409 3.34424
rclavicle -2.56432e-014 -9.54166e-015
rhumerus -34.1344 -17.3772 -77.1993
rradius 26.7911
rwrist 12.5242
rhand -14.0217 11.7588
rfingers 7.12502
rthumb 12.1082 -17.8708
lclavicle -2.56432e-014 -9.54166e-015
lhumerus -33.8864 25.4846 73.0809
lradius 17.0883
lwrist -19.2706
lhand -15.0801 26.3257
lfingers 7.12502
lthumb 11.0875 56.0128
rfemur -19.1253 -1.6208 16.3239
rtibia 74.7462
rfoot -5.83983 -4.72514
rtoes 11.6585
lfemur -16.7299 -2.41642 -26.1488
ltibia 28.3801
lfoot -10.3679 -3.91218
ltoes 3.48784
151
root -0.00757089 17.3105 7.92333 -6.35612 -48.3771 10.3012
lowerback 8.61283 1.10062 -5.53964
upperback -0.39275 0.887607 -0.053797
thorax -5.33805 0.587573 2.94482
lowerneck -15.25 -3.45437 -10.3248
upperneck 22.8567 -3.71093 5.63243
head 10.1064 -2.02019 3.22283
rclavicle -2.63887e-014 -2.54444e-014
rhumerus -34.8693 -17.7154 -76.6658
rradius 26.7983
rwrist 12.9123
rhand -14.0124 11.1241
rfingers 7.12502
rthumb 12.1171 -18.505
lclavicle -2.63887e-014 -2.54444e-014
lhumerus -33.1983 25.701 73.1822
lradius 17.0098
lwrist -20.482
lhand -15.5409 26.2237
lfingers 7.12502
lthumb 10.643 55.9342
rfemur -21.1219 -2.45679 15.3792
rtibia 74.8985
rfoot -6.42247 -4.93682
rtoes 8.70638
lfemur -15.8857 -2.54857 -27.3955
ltibia 28.0873
lfoot -10.8729 -3.88966
ltoes 5.85767
